<svg width="320" height="283" viewBox="0 0 320 283" fill="none" xmlns="http://www.w3.org/2000/svg">
<path d="M290.452 92.4184C288.206 88.5114 286.026 84.5558 283.651 80.7453C283.254 80.1081 281.894 79.656 281.172 79.8753C276.789 81.2074 272.733 80.8305 269.501 77.1128C266.531 73.6965 263.525 74.7392 260.371 76.4209C258.875 77.2185 257.29 77.9006 255.957 78.9534C254.797 79.8698 253.911 81.2125 252.95 82.4116C252.614 82.8311 252.52 83.521 252.143 83.8551C247.506 87.9587 247 93.6077 246.882 99.7864C243.605 97.5669 241.915 100.191 239.858 102.124C239.561 102.182 239.442 102.204 239.038 102.22C237.61 102.206 236.467 102.198 235.467 101.958C237.185 101.185 239.154 101.115 240.254 100.013C243.134 97.1271 243.306 88.828 241.258 84.8293C240.071 82.5102 239.072 79.9617 240.254 77.0846C240.963 75.3585 241.916 73.3734 241.704 71.6597C241.348 68.7695 239.933 66.054 239.364 63.1709C238.56 59.101 236.302 58.0654 232.747 57.7593C223.949 57.0019 218.007 44.9679 219.805 37.9798C220.138 36.6876 220.401 34.42 219.812 33.9632C217.129 31.8855 214.206 30.1088 211.195 28.6532C210.405 28.2713 209.012 29.5144 207.857 29.8563C206.173 30.3548 204.454 31.056 202.751 31.0533C199.953 31.0489 198.506 32.6615 197.483 35.1434C196.244 38.1498 194.867 41.1013 193.825 44.187C193.258 45.8649 192.933 47.8019 193.071 49.5692C193.392 53.6976 194.027 57.6898 197.534 60.471C198.998 61.6313 199.672 63.9102 200.994 65.3692C201.945 66.4192 203.756 67.9161 204.525 67.5532C208.043 65.894 211.502 65.7001 215.226 66.252C219.402 66.8709 223.092 68.6348 225.167 72.4886C229.223 80.0183 229.415 90.1018 222.257 96.8658C218.357 100.551 211.092 102.051 207.297 99.3938C208.669 99.31 209.856 99.3523 211.295 99.3917C217.229 97.2435 223.023 95.6848 224.897 87.8134C226.479 81.1675 223.989 73.4583 218.436 70.116C214.717 67.8781 211.007 68.8707 207.234 69.2807C204.317 69.5978 200.761 68.8924 200.949 74.0788C200.959 74.3695 200.658 74.6913 200.467 74.9703C197.657 79.075 197.574 83.5889 198.768 88.5978C198.743 90.1002 198.724 91.303 198.488 92.39C195.156 86.1747 195.546 80.0403 197.982 73.8114C198.367 72.8274 198.629 71.2028 198.16 70.5043C196.056 67.3717 193.734 64.4023 191.36 61.502C189.689 59.4614 186.187 59.3952 184.537 61.2845C182.794 63.2806 181.081 65.3234 179.511 67.4815C178.143 69.3628 177.508 71.132 179.203 73.6267C181.565 77.104 181.238 81.4955 180.257 85.3622C178.371 92.7983 172.033 96.3271 163.869 95.2123C160.037 94.689 153.034 87.1694 153.631 81.3982C153.914 78.6613 152.71 76.7278 150.161 75.7225C146.557 74.3017 143.103 72.4003 139.453 71.1684C138.113 70.7163 136.318 71.3474 134.879 71.9234C133.55 72.4551 132.466 73.6739 131.189 74.4123C129.214 75.5531 127.167 76.5424 124.952 77.552C124.142 77.7379 123.531 77.9679 122.919 78.1979C123.516 78.7163 124.113 79.2347 124.658 80.0613C124.172 84.1592 123.739 87.9489 123.128 91.5656C122.783 89.9674 122.547 88.5471 122.465 87.1161C122.38 85.6515 122.446 84.1766 122.446 82.7063C122.138 82.6882 121.829 82.6702 121.521 82.6521C121.185 84.074 121.017 85.5808 120.463 86.8932C119.939 88.1314 119.009 89.1648 118.234 90.0044C119.046 85.9522 120.116 82.2185 120.587 78.3969C120.747 77.1031 119.691 74.7506 118.676 74.3183C114.44 72.5138 113.872 67.8583 112.705 64.4179C111.239 60.0961 112.631 55.37 116.143 51.8477C116.979 51.0091 117.652 49.0157 117.329 47.9353C116.143 43.9754 114.625 40.114 112.96 36.3585C112.511 35.344 110.905 34.0164 110.171 34.2295C106.25 35.3674 103.563 33.2043 100.743 30.9046C99.9534 30.2608 98.4391 29.7243 97.6961 30.1198C93.308 32.456 89.0041 34.997 84.7826 37.6768C83.8684 38.2572 82.8454 39.6765 82.8297 40.7265C82.7411 46.6479 80.3782 50.8983 75.8405 54.0526C74.7804 54.7896 73.823 56.5603 73.7295 57.9295C73.4754 61.6492 73.7098 65.4086 73.4757 69.157C71.1466 69.6186 69.0924 70.0755 67.0381 70.5326C67.2787 65.7981 67.6392 61.064 67.6507 56.3289C67.6528 55.4644 66.3681 54.3281 65.4467 53.774C60.7045 50.9218 58.226 46.629 58.9154 40.7626C59.9005 32.38 67.5426 28.2104 74.3855 30.3876C76.1646 30.9536 77.8389 31.9371 79.6315 32.4166C80.7071 32.7043 82.1043 32.7878 83.0365 32.2727C86.9151 30.1296 90.7966 27.927 94.398 25.2922C95.4841 24.4976 96.1773 22.2347 96.1748 20.646C96.1655 14.8278 98.2741 10.0063 102.881 7.65612C110.039 4.00389 117.997 4.30504 122.294 14.0876C124.447 18.9882 123.116 26.0021 119.435 30.2581C118.214 31.6696 116.906 32.5295 118.642 35.0904C120.267 37.4888 120.572 40.9521 121.465 43.9444C121.622 44.4736 121.689 45.319 122.007 45.4612C124.055 46.3764 126.161 47.1376 128.248 47.9478C130.43 48.7944 132.09 49.0014 133.727 46.2759C136.191 42.1746 139.503 38.6875 142.081 34.6551C142.881 33.4044 142.862 31.1355 142.531 29.4983C141.731 25.5442 139.67 21.6897 139.663 17.7917C139.648 9.90411 144.123 4.39814 149.969 0.359177C151.036 -0.378013 152.895 0.248099 154.388 0.247433C156.645 0.246445 158.903 0.242773 161.16 0.248872C168.184 0.267814 171.696 4.24883 174.557 11.4829C177.126 17.9779 175.847 23.2284 173.467 28.9088C173.107 29.7673 173.112 31.3914 173.617 32.0045C177.259 36.4211 181.02 40.7272 184.917 44.8749C185.292 45.2739 187.434 44.6821 187.758 43.9922C189.941 39.3451 191.918 34.5767 193.774 29.7617C194.011 29.1493 193.313 27.9086 192.79 27.1797C189.198 22.1769 188.624 17.2269 191.653 11.9229C192.68 10.1244 194.57 8.07957 196.309 7.76951C200.047 7.103 204.174 6.58881 207.717 7.67057C212.34 9.08232 213.378 14.364 213.432 18.8786C213.499 24.5487 217.768 24.9085 220.631 27.0476C223.23 28.9897 225.392 27.4186 227.457 25.5055C230.702 22.4994 234.707 23.2327 238.401 23.5155C244.912 24.0139 248.988 28.3647 251.05 34.885C251.821 37.3235 252.627 40.18 252.162 42.5528C251.443 46.2164 253.274 47.5406 255.475 48.8986C258.197 50.5781 261.302 51.7012 263.673 53.8218C265.873 55.7899 267.296 55.4562 269.244 53.8325C273.032 50.6748 277.564 51.4461 281.83 51.5882C285.594 51.7136 290.458 58.4319 290.276 63.3699C290.14 67.0537 288.928 70.6764 288.457 74.366C288.263 75.8852 288.35 77.7548 289.009 79.0368C290.783 82.4869 292.933 85.7063 294.729 89.3707C293.166 90.6222 291.809 91.5203 290.452 92.4184ZM145.527 67.6988C147.496 68.6465 149.745 69.2134 151.369 70.6322C153.72 72.6865 155.256 72.3184 157.432 70.2986C161.53 66.4949 166.081 64.474 171.519 67.5588C172.188 67.938 173.979 66.7223 174.831 65.7897C176.368 64.1064 177.479 61.9681 178.964 60.2191C181.535 57.1935 181.569 49.4202 178.912 46.5471C175.922 43.315 172.827 40.183 170.029 36.7631C168.483 34.8725 167.163 35.2577 165.584 36.2861C160.636 39.5083 155.648 38.7105 150.53 36.7385C149.533 36.3542 147.73 36.691 147.032 37.4738C144.71 40.077 142.61 42.9458 140.64 45.8844C139.011 48.3142 136.657 50.8841 136.432 53.5726C135.885 60.0871 139.443 65.1429 145.527 67.6988ZM167.893 32.0706C171.851 31.7022 171.257 27.7259 172.328 25.1898C175.116 18.5911 173.617 11.4811 168.848 5.82834C164.118 0.22093 158.174 1.42584 152.325 1.92236C151.763 1.97006 151.127 2.52171 150.726 3.02824C148.642 5.65712 146.281 8.12021 144.648 11.0591C139.956 19.5047 142.563 29.2166 150.887 32.9636C155.426 35.0069 160.572 37.7263 165.252 32.5433C165.668 32.0832 166.692 32.2778 167.893 32.0706ZM231.579 26.2423C228.748 27.7852 225.903 29.2973 223.105 30.9077C222.73 31.1233 222.271 32.0095 222.399 32.2916C224.31 36.5302 221.174 40.8752 223.199 45.5586C224.875 49.4348 226.367 52.5281 230.067 53.956C232.289 54.8134 234.531 55.7402 236.836 56.1579C238.193 56.4036 239.898 56.1032 241.082 55.3585C243.188 54.0333 244.825 51.34 247.007 50.7482C250.466 49.8099 250.594 47.8507 250.041 44.8902C249.807 43.6393 249.792 42.3306 249.759 41.0456C249.501 30.9186 241.116 23.7918 231.579 26.2423ZM156.795 83.5546C157.293 85.0655 157.535 86.7653 158.334 88.0537C161.475 93.1185 167.998 94.8284 172.538 91.9664C177.936 88.5636 180.155 81.2498 177.345 75.3552C176.322 73.2088 174.913 69.9992 173.309 69.7076C168.675 68.8655 163.502 67.3015 159.677 72.3959C159.361 72.8165 158.81 73.0947 158.319 73.2786C155.729 74.247 155.329 76.3286 155.857 78.896C156.138 80.2605 156.454 81.6162 156.795 83.5546ZM271.697 75.9911C275.709 78.4342 280.029 77.6199 284.267 77.2655C284.956 77.2079 285.814 76.1673 286.161 75.3599C286.79 73.8988 287.108 72.2757 287.531 70.712C289.994 61.5885 284.989 53.657 276.344 54.0025C273.148 54.1302 269.931 56.3902 266.961 58.1517C266.386 58.4924 266.968 61.0393 266.898 62.5621C266.867 63.2383 266.54 63.8978 266.351 64.5661C264.62 70.6942 264.625 70.6857 269.532 74.1906C270.154 74.6352 270.689 75.2253 271.697 75.9911ZM117.613 11.7157C113.655 6.16288 104.478 5.47191 101.224 12.3619C99.3121 16.4111 99.3057 21.5407 98.5295 26.2016C98.4703 26.5573 99.0321 27.1874 99.4356 27.4604C104.017 30.5599 109.136 32.0674 114.36 33.3704C115.373 31.3726 116.06 29.0159 117.471 27.4239C121.984 22.3331 122.277 17.2091 117.613 11.7157ZM125.133 74.1782C129.364 72.0387 133.595 69.8992 137.588 67.8796C136.995 65.0907 136.487 62.6199 135.941 60.1595C134.735 54.7319 133.26 49.5985 126.669 49.96C126.055 49.9936 125.39 49.7249 124.806 49.4503C122.145 48.1983 119.841 47.6683 119.292 51.9853C119.217 52.5745 118.625 53.1959 118.132 53.5939C114.27 56.7073 114.296 61.0231 115.436 65.328C116.748 70.2846 120.328 72.9009 125.133 74.1782ZM62.3329 47.2723C64.8139 49.6258 67.2427 52.0516 69.8233 54.2668C70.2945 54.6713 71.6006 54.5436 72.1541 54.1073C75.924 51.1345 80.1297 48.7026 80.4051 42.4711C80.6264 37.4631 75.3996 31.2878 70.8027 32.0009C63.9242 33.0681 60.224 39.3508 62.3329 47.2723ZM243.969 58.3888C244.937 62.404 245.781 66.4617 246.915 70.4197C247.696 73.1416 249.482 75.1733 252.277 73.9965C256.153 72.3638 260.036 70.5229 263.492 68.0632C264.546 67.3132 264.444 64.222 264.384 62.2204C264.361 61.4521 263.061 60.5795 262.199 60.0178C258.911 57.8757 255.551 55.8659 252.243 53.7596C248.388 51.3049 244.932 52.9746 243.969 58.3888ZM192.62 21.3768C193.833 23.6994 194.961 26.0841 196.318 28.3016C196.665 28.8687 197.786 29.2416 198.469 29.1261C200.682 28.7519 202.871 28.1696 205.044 27.5581C210.553 26.0073 211.702 24.1314 210.991 18.039C210.253 11.7112 205.133 7.26981 199.517 8.80609C195.053 10.0273 191.067 14.2754 192.62 21.3768ZM182.862 56.4185C186.024 57.1487 189.186 57.8789 192.349 58.6091C192.562 58.255 192.774 57.9008 192.987 57.5466C191.979 54.1532 191.017 50.7421 189.911 47.3867C189.759 46.9245 188.927 46.5347 188.368 46.4565C183.719 45.8055 182.655 46.8498 182.653 51.9586C182.653 53.2435 182.708 54.5284 182.862 56.4185ZM243.776 74.2909C241.132 77.7277 242.235 81.0512 244.178 84.2165C244.588 84.8854 245.967 85.6543 246.364 85.3962C249.319 83.4796 251.967 81.1662 252.738 76.6181C249.831 75.7148 246.979 74.8285 243.776 74.2909Z" fill="#70B78F"/>
<path d="M66.9537 70.5254C69.0924 70.0755 71.1466 69.6186 73.7363 69.1732C76.4028 69.8524 78.9111 69.9587 80.589 71.3008C84.4673 74.4028 87.6863 78.0255 88.669 83.7952C89.6689 89.6654 88.6207 94.5491 85.0042 98.6772C81.8608 102.265 82.0436 103.317 85.694 107.316C86.3057 107.987 87.3402 108.194 88.175 108.626C91.4549 110.32 92.5289 112.968 91.7233 117.565C91.3115 119.914 89.7049 121.233 87.7475 121.082C84.9035 120.863 83.3969 122.759 81.9346 124.686C77.4591 130.582 72.9472 136.462 68.7767 142.613C66.3324 146.218 62.3167 149.105 63.2485 154.714C63.3937 155.589 62.483 156.824 61.8268 157.678C59.1993 161.1 58.3186 165.102 58.165 169.437C58.0488 172.72 58.21 175.619 61.7273 176.964C62.8696 177.4 63.688 178.855 64.646 179.854C66.1079 181.379 72.2937 182.556 73.9286 181.53C74.3306 181.277 74.6418 180.702 74.8192 180.201C75.5252 178.209 75.9757 176.081 76.8741 174.205C77.871 172.123 78.879 169.676 80.5378 168.413C85.6124 164.549 91.2931 162.714 97.4256 165.203C99.4244 166.014 100.403 165.165 101.382 163.605C101.859 162.846 102.366 162.106 102.903 161.398C105.927 157.418 109.359 153.737 108.679 147.758C108.555 146.669 109.93 145.02 110.984 144.193C114.29 141.599 116.839 143.838 119.358 146.104C124.524 150.749 129.605 149.271 132.834 143.015C135.121 138.583 138.018 134.247 143.89 135.323C145.666 135.648 147.537 135.38 149.363 135.342C152.682 135.274 160.064 141.102 160.783 144.569C162.472 152.711 161.172 160.069 154.474 164.843C151.986 166.617 148.422 167.239 145.362 167.198C143.127 167.167 141.84 167.302 140.84 169.527C137.031 178 133.114 186.416 129.321 194.897C128.784 196.097 128.704 197.541 128.271 198.639C128.378 196.517 128.618 194.627 128.882 192.742C129.042 191.596 129.238 190.456 129.418 189.314C129.153 189.268 128.888 189.222 128.623 189.177C127.107 191.001 125.592 192.825 124.076 194.649C127.448 187.219 130.826 179.792 134.19 172.358C135.058 170.442 136.134 168.576 136.632 166.546C136.902 165.445 136.379 163.909 135.811 162.819C135.048 161.352 133.818 160.185 132.928 158.784C131.718 156.88 130.851 153.436 129.464 153.194C125.715 152.54 121.938 152.834 118.028 154.635C111.537 157.625 108.345 163.821 104.04 169C109.669 177.307 109.925 185.302 104.862 192.658C97.9089 202.763 83.7259 200.227 79.125 191.848C75.7616 185.722 75.3833 186.053 69.2992 187.3C66.6615 187.84 65.855 189.766 65.2747 191.898C63.9674 196.7 60.4894 199.002 56.6216 199.894C51.2715 201.127 46.8723 198.536 43.8991 193.527C41.4052 189.325 41.0349 184.905 43.9537 180.754C45.1652 179.031 46.8566 177.703 48.3591 176.232C49.6833 174.935 51.0485 173.688 52.6261 172.016C53.3296 169.515 54.1012 167.429 54.1742 165.315C54.2259 163.82 53.3314 162.285 52.8594 160.769C52.8594 160.769 52.921 160.734 52.8545 160.594C52.6458 160.242 52.5036 160.031 52.3614 159.819C52.3614 159.819 52.3111 159.629 52.2071 159.393C51.9618 158.984 51.799 158.838 51.6147 158.721C51.6147 158.721 51.5582 158.721 51.5562 158.46C51.381 157.635 51.2076 157.07 51.0343 156.506C49.6392 151.667 50.5466 149.315 54.7192 148.622C60.2135 147.709 62.0664 142.42 65.1084 138.748C70.08 132.748 74.4571 126.161 79.0877 119.824C79.153 119.735 79.2635 119.686 79.3336 119.6C80.8595 117.716 80.783 107.516 79.1035 105.826C78.5672 105.287 77.5935 105.151 76.7969 105.053C73.5618 104.654 70.3224 104.213 67.0743 104.076C66.0944 104.034 64.7235 104.624 64.1428 105.441C60.7578 110.207 57.4388 115.041 54.3702 120.051C53.5884 121.328 53.1849 123.572 53.6515 124.95C56.0188 131.945 52.2215 138.547 45.1654 139.615C43.6868 139.838 41.8555 140.815 41.0366 142.093C37.3562 147.837 33.961 153.799 30.5083 159.714C29.1801 161.989 29.7489 164.063 31.2093 166.068C34.4904 170.572 34.7403 175.412 33.2113 180.897C31.2838 187.811 22.8075 192.06 16.7844 190.761C11.1842 189.554 6.95648 185.414 5.62463 179.824C4.07716 173.33 4.99703 166.431 10.8009 162.081C12.6442 160.699 14.628 160.22 14.4626 156.969C14.3339 154.437 13.3618 153.185 11.3913 152.97C6.91124 152.481 4.1561 149.146 1.76742 145.74C-2.26371 139.992 1.72321 127.656 8.00936 125.406C10.3779 124.558 13.2803 124.076 13.6517 120.761C14.0413 117.284 11.0102 116.697 8.92895 115.731C3.02361 112.99 0.893932 107.496 0.231138 101.279C-0.746834 92.106 1.23131 84.0049 9.00304 78.7794C9.94535 78.1458 11.0617 77.6092 12.145 77.4706C18.7203 76.6295 25.5512 75.5004 31.1343 80.4764C34.1976 83.2066 36.3425 87.1636 39.0974 90.828C42.656 90.2182 46.6618 89.4947 50.679 88.8547C53.8894 88.3432 56.3303 86.922 57.1984 82.8137C57.8874 82.5446 58.3055 82.544 58.8589 82.7726C58.8933 87.7553 58.9295 92.3419 61.7477 96.547C63.1373 98.6203 62.9132 102.22 66.76 100.622C67.2637 100.412 68.0889 101.37 68.8067 101.489C72.6279 102.12 76.5563 103.786 80.2291 101.317C81.4703 100.482 82.0424 98.5471 83.1186 97.3221C87.9464 91.8271 86.9698 85.707 84.4977 79.6934C81.8779 73.3206 72.9237 70.1652 67.3033 73.205C66.4593 73.6616 65.4714 73.8012 64.452 73.8969C64.2813 73.1375 64.2086 72.5686 64.1359 71.9996C64.5313 71.7271 64.9268 71.4545 65.6907 71.1196C66.2749 70.8944 66.4907 70.7316 66.7065 70.5688C66.7065 70.5688 66.8694 70.5183 66.9537 70.5254ZM24.0037 128.973C24.0037 128.973 24.005 128.916 24.2555 129.153C24.4036 129.33 24.5518 129.506 24.6778 129.594C24.6778 129.594 24.7593 129.569 24.7843 130.044C25.2182 130.603 25.6521 131.162 26.0377 131.721C26.0377 131.721 26.0389 131.668 25.9954 132.288C26.2177 135.666 26.44 139.045 26.5645 142.956C26.1074 147.064 23.798 149.642 20.5921 151.418C19.0584 152.267 18.2653 153.543 18.9836 155.266C19.6997 156.983 19.1806 160.1 21.9365 159.83C23.5831 159.67 25.7587 158.757 26.6093 157.381C29.7367 152.324 32.5809 147.031 35.1699 141.62C36.2139 139.438 38.7126 137.592 36.9649 134.233C33.3661 127.314 37.745 119.037 45.3975 119.044C46.9797 119.045 49.0909 118.071 50.05 116.757C53.3503 112.236 56.4127 107.475 59.1908 102.554C59.9458 101.217 59.7536 98.8781 59.324 97.2043C58.8214 95.2459 57.7337 93.2919 55.2357 93.7777C50.7905 94.6422 46.3535 95.5613 41.8974 96.3525C38.9302 96.8793 37.6933 98.5664 38.1976 101.86C38.326 102.699 38.0709 103.661 37.8205 104.506C35.6742 111.75 30.7531 115.883 24.5015 118.467C23.2544 118.982 21.7547 119.02 20.715 119.814C19.646 120.63 18.8304 122.021 18.2932 123.348C18.1728 123.646 19.6921 124.698 20.417 125.449C21.024 126.078 21.5734 126.772 22.4346 127.695C22.7826 127.836 23.1306 127.976 23.4559 128.213C23.4559 128.213 23.3673 128.188 23.6226 128.419C23.7669 128.604 23.9113 128.789 24.0037 128.973ZM16.8163 118.14C19.6863 117.254 22.6173 116.548 25.404 115.418C27.1589 114.706 28.7187 113.397 30.3296 112.292C36.2855 108.208 34.904 100.349 37.8684 94.7177C37.993 94.4811 37.9049 93.9609 37.7388 93.7155C35.9121 91.0174 34.1031 88.3014 32.1822 85.6838C30.4126 83.2723 27.603 82.7254 25.3058 81.2805C20.3883 78.1871 15.7557 81.4647 11.0171 81.2144C10.928 81.2097 10.8314 81.324 10.742 81.3887C-0.251747 89.3352 -0.904974 107.373 10.1378 113.616C12.3206 114.85 14.2984 116.515 16.8163 118.14ZM87.4703 196.319C93.5447 197.25 99.0106 196.868 103.283 190.811C107.531 184.788 106.789 174.869 101.296 170.013C94.7946 164.264 83.0605 167.136 79.1884 175.628C77.965 178.311 76.6823 182.202 77.59 184.541C79.4269 189.273 82.2318 193.835 87.4703 196.319ZM158.3 149.689C157.68 147.466 157.431 145 156.369 143.066C153.563 137.953 148.408 135.999 142.942 137.512C139.054 138.588 132.913 146.165 132.69 150.187C132.671 150.525 132.714 150.92 132.861 151.208C134.97 155.352 136.997 159.556 139.313 163.56C139.802 164.404 141.345 164.761 142.447 164.892C144.25 165.106 146.096 164.852 147.914 164.97C153.327 165.319 160.778 156.211 158.3 149.689ZM13.7903 163.215C8.73294 166.446 6.3386 171.215 7.20256 177.59C7.89984 182.735 11.4609 185.892 15.2391 187.853C20.5663 190.617 25.1988 187.857 29.1845 183.677C32.4264 180.278 32.644 175.938 31.3055 171.945C29.7028 167.165 28.533 161.156 21.7854 161.787C21.3786 161.825 20.9174 161.668 20.5377 161.473C18.0724 160.202 15.9658 160.691 13.7903 163.215ZM22.3864 131.18C20.0641 129.593 17.8801 127.059 15.3893 126.626C10.9847 125.861 5.17017 130.355 3.76297 134.463C2.08862 139.35 3.46425 144.951 8.03094 148.333C10.4459 150.121 14.5229 152.316 16.4326 151.265C22.3725 147.994 27.9193 140.728 22.3864 131.18ZM54.744 176.275C54.2184 176.396 53.6933 176.52 53.1671 176.639C45.5369 178.35 42.3399 186.906 47.3007 193.31C49.0013 195.505 52.0203 197.518 54.5479 197.692C59.1877 198.01 63.9637 192.501 64.0966 188.018C64.2492 182.87 60.0298 177.235 54.744 176.275ZM44.1054 137.205C45.3275 136.771 46.6073 136.469 47.7614 135.877C51.8823 133.761 52.683 130.441 51.046 123.981C50.1033 120.261 47.4327 121.093 45.2947 121.386C43.8768 121.58 42.6469 123.11 41.2513 123.862C38.9449 125.105 37.7772 126.913 38.3672 129.781C39.0624 133.159 40.2041 136.174 44.1054 137.205ZM54.0862 151.812C54.371 154.258 54.5261 156.738 55.0441 159.123C55.155 159.634 56.7015 160.263 57.3793 160.051C59.7655 159.303 61.8197 155.007 61.3097 151.924C61.1722 151.093 60.3385 150.396 59.8087 149.651C59.7694 149.596 59.5964 149.621 59.4976 149.653C57.7897 150.21 56.0837 150.773 54.0862 151.812Z" fill="#58B0A8"/>
<path d="M235.323 102.19C236.467 102.198 237.61 102.206 238.974 102.439C238.143 103.632 237.092 104.602 236.037 105.567C233.175 108.183 232.267 111.622 233.274 115.366C234.368 119.436 236.859 122.032 240.983 122.731C245.085 123.426 248.152 122.109 250.258 118.25C251.831 115.365 252.445 112.284 250.597 109.316C248.075 105.265 245.613 100.909 240.036 102.087C241.915 100.191 243.605 97.5669 246.843 100.106C247.819 101.277 248.571 102.401 249.614 103.735C250.032 104.099 250.171 104.24 250.322 104.366C250.749 104.92 251.175 105.474 251.606 106.385C252.019 107.109 252.428 107.476 252.836 107.842C254.896 114.232 253.462 120.177 248.63 124.283C245.609 126.851 238.645 127.252 234.612 122.552C232.331 119.894 230.336 120.874 228.089 121.519C226.598 121.947 225.227 122.866 223.739 123.312C220.434 124.303 217.603 125.694 215.634 129.163C214.729 130.756 212.407 131.352 210.811 132.534C209.913 133.2 208.946 133.989 208.424 134.981C206.55 138.55 204.746 142.175 203.147 145.897C202.6 147.172 202.734 148.796 202.457 151.075C205.836 150.551 208.798 150.107 211.755 149.628C215.048 149.095 218.399 148.792 221.601 147.872C223.223 147.406 224.755 146.007 225.998 144.665C227.672 142.859 229.116 140.442 231.757 141.066C234.686 141.757 237.734 142.553 238.327 146.862C238.689 149.481 237.478 152.132 234.851 153.662C233.819 154.263 232.615 155.481 232.399 156.623C230.798 165.073 229.413 173.572 227.993 182.063C227.655 184.089 227.445 186.14 226.998 188.386C225.177 187.695 223.536 186.796 221.918 185.62C224.796 174.555 226.621 163.567 228.113 151.945C225.547 152.258 223.764 152.382 222.013 152.708C218.121 153.433 214.2 154.059 210.38 155.112C207.718 155.846 204.753 155.932 203.703 160.122C202.781 163.801 199.951 166.027 196.098 166.293C192.071 166.571 188.768 165.363 186.858 161.325C182.964 153.091 186.834 146.11 195.28 145.852C196.163 145.826 197.702 145.507 197.81 145.025C199.263 138.507 206.635 133.985 203.33 125.858C203.26 125.685 203.733 125.319 203.779 125.012C204.772 118.402 207.43 118.42 214.022 119.653C215.253 119.883 216.601 119.898 217.811 119.603C219.419 119.211 220.905 118.212 222.515 117.838C226.962 116.804 230.808 115.232 230.817 109.182C230.818 108.982 231.023 108.782 231.27 108.581C231.407 108.58 231.682 108.578 231.696 108.661C231.762 108.763 231.813 108.781 231.864 108.8C231.804 108.725 231.745 108.65 231.681 108.376C231.668 108.046 231.66 107.915 231.673 107.626C231.694 107.47 231.79 107.171 231.885 107.049C232.102 106.759 232.213 106.582 232.312 106.42C232.312 106.443 232.272 106.431 232.49 106.359C233.271 105.178 233.834 104.069 234.53 102.884C234.884 102.602 235.103 102.396 235.323 102.19ZM196.778 147.876C195.922 147.932 195.063 147.95 194.213 148.05C190.78 148.456 189.073 151.005 187.782 154.148C186.569 157.101 188.238 159.071 189.69 161.065C191.317 163.301 195.918 164.654 198.18 163.721C200.593 162.726 203.291 158.205 203.208 155.297C203.122 152.289 199.774 148.07 196.778 147.876Z" fill="#58B0A8"/>
<path d="M231.658 222.15C229.68 225.829 225.932 225.593 222.856 226.723C221.222 227.323 220.142 227.582 219.958 229.929C219.693 233.303 218.487 236.591 218.247 239.964C218.116 241.801 218.866 243.907 219.717 245.593C221.677 249.476 222.062 253.13 219.068 257.002C218.528 257.424 218.349 257.63 218.171 257.836C218.171 257.836 218.17 257.789 218.032 257.869C217.779 258.15 217.664 258.351 217.548 258.552C217.548 258.552 217.51 258.494 217.38 258.576C217.129 258.857 217.009 259.055 216.888 259.253C216.888 259.253 216.871 259.21 216.713 259.425C216.676 263.471 216.796 267.3 216.916 271.13C216.916 271.13 216.87 271.116 216.943 271.26C217.197 271.538 217.379 271.673 217.561 271.807C217.561 271.807 217.52 271.819 217.592 271.963C217.847 272.238 218.029 272.369 218.212 272.5C218.212 272.5 218.162 272.52 218.216 272.694C218.415 273.085 218.559 273.303 218.703 273.521C220.13 275.482 220.973 277.891 219.324 279.781C218.063 281.227 215.882 282.452 214.106 282.46C211.448 282.471 209.499 280.692 209.043 277.336C208.858 275.977 207.959 274.538 207.026 273.531C204.26 270.544 201.351 268.453 196.896 268.734C194.89 268.861 192.209 265.979 190.731 263.753C189.013 261.167 189.723 258.198 191.888 255.671C194.818 252.248 192.93 246.257 188.883 245.078C181.044 242.792 176.826 232.316 180.883 225.078C181.599 223.8 182.293 222.465 183.215 221.376C184.582 219.76 185.902 217.922 188.366 218.355C192.165 219.023 196.117 217.154 199.868 220.176C202.073 221.951 205.055 218.6 204.559 215.404C204.051 212.132 203.364 208.816 203.44 205.538C203.5 202.932 204.593 200.356 205.38 197.462C205.796 197.136 206.058 197.113 206.373 197.404C206.283 199.213 206.043 200.706 206.016 202.203C205.952 205.771 205.992 209.341 205.982 212.911C205.969 217.386 209.179 218.9 211.867 221.264C216.404 225.255 220.684 225.828 225.95 223.059C231.74 220.013 235.365 215.593 236.227 208.58C236.352 207.57 236.745 206.601 237.122 205.785C237.7 206.567 238.17 207.176 238.64 207.785C238.647 208.856 238.655 209.926 238.254 211.307C237.506 213.037 237.166 214.456 236.825 215.875C236.825 215.875 236.849 215.902 236.684 216.054C236.424 216.473 236.329 216.741 236.233 217.009C236.233 217.009 236.211 216.971 236.073 217.097C235.806 217.47 235.677 217.716 235.548 217.962C235.547 218.113 235.488 218.228 235.098 218.417C234.637 218.725 234.448 218.923 234.259 219.12C234.259 219.12 234.285 219.063 234.088 219.129C233.147 220.18 232.403 221.165 231.658 222.15ZM205.913 265.484C205.913 265.484 205.937 265.437 206.032 265.822C206.178 266.035 206.324 266.247 206.697 266.772C207.208 267.078 207.719 267.383 208.501 267.966C208.725 268.071 208.949 268.176 209.155 268.235C209.155 268.235 209.197 268.215 209.12 268.721C209.137 269.228 209.154 269.735 208.872 270.44C210.411 273.499 211.638 276.829 213.603 279.516C214.819 281.179 217.238 279.63 217.407 277.343C217.564 275.209 214.442 270.346 212.533 269.1C212.445 266.266 212.356 263.431 212.304 260.651C212.304 260.651 212.255 260.691 212.264 260.253C212.046 259.902 211.828 259.55 211.655 259.207C211.655 259.207 211.645 259.255 211.526 258.793C211.058 258.446 210.59 258.099 209.66 257.828C205.876 252.066 206.047 248.497 210.602 244.205C210.741 244.01 210.88 243.815 210.977 243.671C210.977 243.671 210.93 243.625 211.327 243.578C211.658 243.354 211.989 243.129 212.274 242.974C212.274 242.974 212.21 242.924 212.624 242.832C212.938 242.369 213.252 241.907 213.623 241.519C213.623 241.519 213.555 241.581 213.865 241.151C214.603 237.54 215.517 233.956 215.983 230.304C216.148 229.015 215.219 227.559 214.829 226.151C214.829 226.151 214.856 226.195 214.738 225.85C214.556 225.712 214.375 225.575 214.241 225.43C214.241 225.43 214.248 225.482 213.944 225.126C213.526 224.977 213.108 224.829 212.655 224.705C212.655 224.705 212.639 224.663 212.31 224.27C212.002 224.177 211.694 224.083 211.05 223.746C209.881 223.109 208.27 221.611 207.628 222.003C205.98 223.009 203.287 224.248 204.814 227.176C206.767 230.923 205.236 234.372 204.295 237.688C203.714 239.735 201.926 241.566 200.325 243.033C197.283 245.821 196.664 247.294 198.199 251.138C198.678 252.34 199.734 253.268 200.868 254.604C201.273 254.692 201.678 254.78 202.083 254.926C202.083 254.926 202.062 254.873 202.18 255.21C202.361 255.335 202.542 255.461 202.731 255.606C202.731 255.606 202.75 255.598 202.743 256.04C202.915 256.261 203.088 256.482 203.3 256.717C203.3 256.717 203.281 256.759 203.308 257.246C203.546 257.638 203.785 258.03 204.044 258.409C204.044 258.409 204.061 258.428 203.882 259.013C204.362 260.933 204.841 262.854 205.275 264.778C205.275 264.778 205.273 264.729 205.415 265.06C205.597 265.195 205.778 265.33 205.913 265.484ZM185.302 239.785C186.08 240.41 186.78 241.283 187.652 241.615C190.375 242.651 193.045 245.251 196.061 243.417C202.61 239.436 205.233 230.907 202.498 223.444C202.346 223.032 202.081 222.434 201.778 222.358C198.39 221.509 195.012 220.355 191.577 220.065C187.807 219.747 185.873 222.725 184.003 226.03C181.053 231.246 181.089 235.266 185.302 239.785ZM193.014 259.043C192.286 261.573 192.338 263.825 194.623 265.511C197.448 267.597 200.369 267.065 203.653 266.507C203.019 263.829 202.623 261.548 201.928 259.381C201.101 256.799 199.375 254.593 196.847 254.869C195.515 255.014 194.373 257.243 193.014 259.043ZM209.107 251.6C210.024 253.234 210.848 254.945 211.899 256.47C212.385 257.174 213.801 258.096 213.965 257.932C215.63 256.264 218.161 254.543 218.404 252.541C218.711 250.012 217.151 247.193 216.285 244.543C216.196 244.271 215.321 244.129 214.85 244.208C211.806 244.713 209.394 247.611 209.107 251.6Z" fill="#27B6B7"/>
<path d="M290.415 92.683C291.809 91.5203 293.166 90.6222 294.731 89.6278C298.64 89.7798 302.35 90.3217 306.04 90.1879C309.269 90.0709 310.77 92.6249 312.059 94.6758C319.3 106.19 311.428 117.064 302.32 118.714C299.593 119.208 296.375 117.254 293.545 115.99C291.811 115.215 290.787 114.858 289.19 116.52C286.491 119.329 283.516 121.917 280.358 124.078C277.594 125.968 277.967 128.989 277.758 131.464C277.349 136.33 274.434 138.102 270.946 139.131C268.889 139.737 267.756 140.726 266.947 142.811C265.409 146.778 263.633 150.636 261.936 154.528C260.9 156.904 261.149 158.931 262.718 161.065C266.381 166.047 266.565 174.81 262.555 179.209C259.613 182.436 261.1 184.986 262.259 187.881C262.67 188.906 263.375 189.791 263.653 190.957C261.645 191.633 259.93 192.093 258.215 192.552C257.517 190.282 257.115 187.816 256.002 185.821C255.405 184.752 253.611 184.026 252.315 183.945C242.33 183.324 238.218 174.513 240.781 165.4C242.662 158.712 246.794 155.724 253.344 155.781C255.288 155.798 256.546 155.283 257.301 153.255C259.059 148.532 261.021 143.895 262.636 139.116C263.063 137.852 262.929 135.969 262.347 134.78C261.298 132.636 260.879 126.241 262.117 124.199C263.521 121.881 268.191 119.464 270.509 120.618C274.557 122.635 277.016 120.878 279.729 117.792C281.59 115.674 284.301 114.467 286.521 112.688C287.154 112.18 287.69 111.128 287.766 110.272C287.952 108.184 288.124 106.01 287.795 103.968C287.121 99.7939 288.997 96.4703 290.415 92.683ZM303.91 115.791C310.347 114.377 315.366 101.11 309.377 95.5681C305.981 92.4248 298.879 89.5489 294.632 91.1869C293.997 91.4319 293.213 92.0821 293.033 92.7237C292.04 96.2554 290.783 99.7945 290.441 103.424C290.034 107.75 289.249 112.335 295.275 114.055C297.998 114.832 300.479 116.438 303.91 115.791ZM258.749 179.468C260.241 177.508 262.292 175.789 263.104 173.537C264.597 169.396 262.258 162.899 258.639 160.153C255.048 157.428 251.349 158.085 247.732 160.363C242.394 163.725 240.796 169.992 244.051 175.676C246.593 180.114 252.596 183.36 258.749 179.468ZM275.896 131.469C276.823 124.714 275.963 123.569 269.783 123.331C269.461 123.319 269.139 123.317 268.818 123.325C264.791 123.428 262.421 126.608 263.381 130.796C263.862 132.893 264.499 134.97 265.293 136.948C265.538 137.559 266.675 138.315 267.159 138.151C270.525 137.005 274.021 135.951 275.896 131.469Z" fill="#58B0A8"/>
<path d="M124.011 194.927C125.592 192.825 127.107 191.001 128.623 189.177C128.888 189.222 129.153 189.268 129.418 189.314C129.238 190.456 129.042 191.596 128.882 192.742C128.618 194.627 128.378 196.517 128.394 198.818C130.907 202.08 132.769 205.702 137.215 203.614C138.526 202.998 140.019 202.717 141.454 202.563C144.486 202.237 145.663 200.42 145.61 197.144C146.491 194.898 147.179 192.766 147.85 190.603C147.833 190.572 147.89 190.534 148.031 190.386C148.261 189.976 148.352 189.714 148.455 189.472C148.467 189.493 148.425 189.477 148.575 189.402C148.852 189.133 148.977 188.939 149.088 188.765C149.073 188.785 149.037 188.75 149.289 188.786C150.216 188.79 150.892 188.757 151.579 188.983C151.494 189.695 151.455 190.173 151.295 190.597C149.846 194.435 148.24 198.212 146.99 202.124C146.579 203.407 146.595 205.392 147.248 206.439C149.21 209.591 151.352 212.694 153.838 215.356C159.766 221.7 171.535 219.803 175.741 212.04C180.288 203.649 179.707 197.617 173.686 190.258C173.356 189.854 173.274 189.208 173.354 188.676C176.483 188.69 179.252 188.778 179.025 193.218C179.005 193.617 179.638 194.056 179.968 194.476C181.156 199.948 181.099 205.366 179.41 210.725C177.956 215.343 172.264 220.171 167.336 220.42C163.803 220.408 160.835 220.423 157.868 220.438C157.868 220.438 157.806 220.48 157.578 220.298C156.725 220.033 156.099 219.95 155.473 219.866C155.473 219.866 155.51 219.812 155.408 219.665C154.938 219.393 154.57 219.269 154.203 219.144C154.203 219.144 154.234 219.111 154.122 218.96C153.636 218.689 153.263 218.569 152.889 218.448C152.889 218.448 152.92 218.412 152.874 218.258C152.645 217.969 152.463 217.834 152.281 217.698C152.281 217.698 152.319 217.679 152.206 217.524C151.862 217.231 151.63 217.094 151.398 216.956C149.461 214.143 147.518 211.334 145.594 208.511C145.346 208.148 145.152 207.338 145.002 207.357C142.529 207.68 140.075 208.354 137.602 208.434C135.032 208.517 133.255 208.503 132.131 212.029C129.319 220.852 122.026 223.633 115.153 219.668C106.571 214.718 105.853 203.361 114.139 197.541C116.218 196.08 119.339 196.397 121.974 195.856C122.645 195.719 123.289 195.427 124.011 194.927ZM123.081 218.722C124.008 218.148 124.98 217.646 125.852 216.986C128.961 214.633 131.477 209.078 130.616 206.589C128.581 200.704 123.697 197.171 118.799 198.042C113.846 198.922 109.927 205.362 111.312 210.348C112.978 216.354 116.592 219.083 123.081 218.722Z" fill="#27B6B7"/>
<path d="M318.675 148.602C322.907 160.335 316.23 174.59 304.616 176.058C301.588 176.441 298.428 176.023 295.375 175.588C293.098 175.263 291.472 174.949 289.925 177.699C286.724 183.389 282.966 188.707 279.2 194.283C277.951 192.628 276.517 192.369 274.832 193.006C276.397 189.993 277.829 186.886 279.562 183.993C281.667 180.481 284.078 177.19 286.245 173.72C287.072 172.396 287.405 171.244 286.011 169.544C280.63 162.977 279.885 151.07 283.423 144.54C283.658 144.034 283.748 143.888 283.823 143.731C283.823 143.731 283.829 143.657 284.083 143.636C285.792 142.471 287.249 141.334 288.697 140.182C290.396 138.831 291.922 136.796 293.815 136.24C298.789 134.779 303.884 134.22 308.7 137.302C309.777 137.992 311.07 138.278 312.264 138.75C312.683 139.135 313.102 139.521 313.655 140.315C314.346 141.234 314.902 141.745 315.459 142.256C315.677 142.417 315.895 142.578 316.209 143.146C316.67 144.052 317.035 144.55 317.4 145.048C317.4 145.048 317.549 145.092 317.622 145.259C317.773 145.54 317.86 145.643 317.957 145.738C317.996 145.89 318.035 146.042 318.141 146.628C318.364 147.574 318.519 148.088 318.675 148.602ZM315.597 165.774C317.52 159.008 317.881 152.666 314.414 145.954C311.302 139.928 306.556 137.654 301.143 136.94C297.084 136.404 292.707 137.257 290.11 141.81C289.781 142.387 289.25 142.862 288.738 143.273C284.766 146.458 282.414 157.508 284.59 162.54C285.955 165.696 289.488 167.438 289.466 171.512C289.465 171.77 290.075 172.199 290.444 172.266C293.805 172.872 297.16 173.719 300.546 173.912C306.654 174.259 311.351 170.983 315.597 165.774Z" fill="#58B0A8"/>
<path d="M151.568 188.724C150.892 188.757 150.216 188.79 149.355 188.554C152.048 186.334 154.803 183.051 157.83 182.72C163.536 182.095 169.797 181.08 174.572 186.653C175.527 187.768 177.227 189.197 178.682 187.148C180.533 184.539 182.567 181.957 183.832 179.011C185.553 175.004 186.057 174.273 191.492 174.75C194.075 174.977 195.242 176.957 195.731 179.809C196.079 181.842 196.89 184.221 198.241 185.52C201.207 188.372 204.646 190.637 207.338 192.713C209.817 191.251 211.859 190.045 213.88 189.104C213.738 190.061 213.616 190.754 213.294 191.488C212.592 191.758 212.091 191.988 211.395 192.286C210.661 192.987 210.121 193.619 209.353 194.252C208.667 194.298 208.21 194.342 207.581 194.5C207.083 195.22 206.755 195.828 206.394 196.598C206.361 196.761 206.321 197.091 206.321 197.091C206.058 197.113 205.796 197.136 205.338 197.196C202.599 195.051 200.035 192.896 197.518 190.678C193.306 186.967 185.58 186.743 181.039 191.21C180.449 191.79 180.384 193.006 180.022 194.202C179.638 194.056 179.005 193.617 179.025 193.218C179.252 188.778 176.483 188.69 173.215 188.498C171.798 187.703 170.797 187.087 169.655 186.363C169.195 186.129 168.875 186.001 168.312 185.79C164.755 185.325 161.44 184.944 157.884 184.571C155.354 185.426 152.642 185.545 151.652 188.69C151.621 188.691 151.568 188.724 151.568 188.724Z" fill="#58B0A8"/>
<path d="M274.861 193.017C276.517 192.369 277.951 192.628 279.14 194.541C279.28 195.55 279.243 196.407 279.371 197.652C279.729 198.234 279.921 198.429 280.113 198.623C280.113 198.623 280.063 198.628 280.116 198.823C280.326 199.239 280.484 199.46 280.642 199.681C284.669 207.237 284.382 214.699 279.104 221.182C272.521 229.267 260.214 228.487 254.889 220.385C253.395 218.112 252.008 215.629 251.139 213.018C248.984 206.54 252.024 201.567 255.602 196.844C256.518 195.634 257.291 194.294 258.173 192.783C259.93 192.093 261.645 191.633 263.616 191.231C263.992 191.387 264.111 191.49 264.492 191.869C267.096 192.448 269.435 192.756 271.773 193.063C272.024 193.069 272.274 193.074 272.876 193.225C273.789 193.236 274.351 193.101 274.913 192.966C274.913 192.966 274.89 193.028 274.861 193.017ZM254.218 212.98C255.125 218.149 257.858 221.864 262.459 223.153C267.539 224.577 272.582 224.653 276.687 219.811C281.062 214.648 282.119 207.43 278.968 201.787C276.127 196.7 267.261 192.919 262.202 194.644C261.897 194.748 261.599 194.895 261.319 195.066C255.944 198.35 252.905 205.677 254.218 212.98Z" fill="#27B6B7"/>
<path d="M58.7236 82.5435C58.3055 82.5441 57.8874 82.5446 57.2603 82.5466C57.6478 80.2816 58.362 78.5081 55.1912 77.2137C52.2796 76.0252 50.0542 72.9665 47.2486 71.2831C45.83 70.432 43.6169 70.1933 42.0773 70.7369C38.3079 72.068 35.0801 71.2522 32.2146 68.6886C29.8096 66.5371 28.9806 63.6672 29.6827 60.1642C31.2737 52.2268 35.8887 48.8645 42.7777 51.6828C46.0567 53.0243 47.9523 56.9508 47.6749 60.6211C47.3073 65.4849 50.341 67.1226 52.9381 69.2973C54.9034 70.9431 57.1698 72.161 59.441 73.9547C59.9878 74.3112 60.3958 74.2825 60.8038 74.2538C61.7558 73.4696 62.7078 72.6855 63.8978 71.9505C64.2086 72.5686 64.2813 73.1375 64.3346 74.093C62.4513 77.1676 60.5874 79.8556 58.7236 82.5435ZM45.3238 62.3604C44.0038 59.5869 43.1781 56.2536 41.2235 54.1986C39.3029 52.1793 36.2928 52.8698 34.1905 54.9578C31.8645 57.2682 30.9024 60.2218 32.3153 63.5016C33.5584 66.3868 35.5514 68.4674 38.735 68.4481C43.5185 68.4191 45.5706 66.6671 45.3238 62.3604Z" fill="#70B78F"/>
<path d="M213.494 191.447C213.616 190.754 213.738 190.061 213.896 189.077C213.932 188.785 213.976 188.83 214.274 188.886C217.257 188.567 220.408 189.533 221.943 185.909C221.93 185.931 221.894 185.897 221.894 185.897C223.536 186.796 225.177 187.695 227.03 188.685C227.242 188.776 227.196 188.781 227.208 189.006C229.528 191.06 231.836 192.887 234.145 194.715C234.145 194.715 234.235 194.846 234.235 195.204C234.248 196.112 234.261 196.661 234.048 197.166C230.971 195.153 228.181 193.064 225.239 191.272C223.992 190.513 222.401 189.959 221.009 190.053C218.487 190.224 215.997 190.952 213.494 191.447Z" fill="#27B6B7"/>
<path d="M312.298 138.491C311.07 138.278 309.777 137.992 308.7 137.302C303.884 134.22 298.789 134.779 293.815 136.24C291.922 136.796 290.396 138.831 288.697 140.182C287.249 141.334 285.792 142.471 284.117 143.638C286.599 138.809 290.295 135.065 295.497 134.259C301.42 133.341 307.55 132.774 312.298 138.491Z" fill="#70B78F"/>
<path d="M234.197 194.453C231.836 192.887 229.528 191.06 227.207 188.981C229.546 190.551 231.898 192.371 234.197 194.453Z" fill="#58B0A8"/>
<path d="M238.686 207.488C238.17 207.176 237.7 206.567 237.095 205.556C236.924 204.848 236.89 204.542 236.871 203.951C236.6 201.823 236.312 199.981 236.086 198.074C236.147 198.008 236.269 197.878 236.269 197.878C237.09 200.983 237.911 204.087 238.686 207.488Z" fill="#58B0A8"/>
<path d="M52.887 161.058C53.3314 162.285 54.2259 163.82 54.1742 165.315C54.1012 167.429 53.3296 169.515 52.6647 171.75C52.6201 168.374 52.7674 164.861 52.887 161.058Z" fill="#70B78F"/>
<path d="M271.634 192.815C269.435 192.756 267.096 192.448 264.589 191.937C266.779 192.011 269.137 192.289 271.634 192.815Z" fill="#58B0A8"/>
<path d="M216.917 270.8C216.796 267.3 216.676 263.471 216.734 259.419C216.915 262.955 216.916 266.713 216.917 270.8Z" fill="#58B0A8"/>
<path d="M158.021 220.723C160.835 220.423 163.803 220.408 167.089 220.417C164.329 220.63 161.251 220.819 158.021 220.723Z" fill="#58B0A8"/>
<path d="M231.891 222.066C232.403 221.165 233.147 220.18 234.114 219.143C233.599 220.055 232.861 221.019 231.891 222.066Z" fill="#58B0A8"/>
<path d="M234.274 197.21C234.261 196.661 234.248 196.112 234.232 195.286C234.894 195.807 235.559 196.605 236.247 197.641C236.269 197.878 236.147 198.008 235.883 198.023C235.206 197.966 234.793 197.893 234.36 197.667C234.34 197.513 234.274 197.21 234.274 197.21Z" fill="#58B0A8"/>
<path d="M237.053 215.732C237.166 214.456 237.506 213.037 238.056 211.466C237.938 212.739 237.61 214.164 237.053 215.732Z" fill="#58B0A8"/>
<path d="M315.465 142.027C314.902 141.745 314.346 141.234 313.738 140.523C314.281 140.815 314.876 141.306 315.465 142.027Z" fill="#70B78F"/>
<path d="M317.406 144.842C317.035 144.55 316.671 144.052 316.286 143.349C316.648 143.642 317.03 144.138 317.406 144.842Z" fill="#70B78F"/>
<path d="M252.839 107.643C252.428 107.476 252.019 107.109 251.673 106.593C252.105 106.777 252.473 107.11 252.839 107.643Z" fill="#70B78F"/>
<path d="M60.5883 74.1968C60.3959 74.2825 59.9879 74.3112 59.537 74.1833C59.787 74.0644 60.0799 74.1021 60.5883 74.1968Z" fill="#58B0A8"/>
<path d="M155.585 220.121C156.099 219.95 156.725 220.033 157.558 220.265C157.076 220.401 156.387 220.388 155.585 220.121Z" fill="#58B0A8"/>
<path d="M51.0392 156.749C51.2076 157.07 51.381 157.635 51.5554 158.429C51.3858 158.103 51.215 157.547 51.0392 156.749Z" fill="#70B78F"/>
<path d="M318.719 148.381C318.52 148.088 318.364 147.574 318.201 146.856C318.384 147.154 318.573 147.657 318.719 148.381Z" fill="#70B78F"/>
<path d="M274.66 192.987C274.351 193.101 273.789 193.236 273.059 193.27C273.397 193.115 273.902 193.061 274.66 192.987Z" fill="#58B0A8"/>
<path d="M154.26 219.373C154.57 219.269 154.938 219.393 155.433 219.685C155.145 219.769 154.731 219.686 154.26 219.373Z" fill="#58B0A8"/>
<path d="M152.959 218.67C153.263 218.569 153.636 218.689 154.135 218.98C153.85 219.064 153.439 218.978 152.959 218.67Z" fill="#58B0A8"/>
<path d="M217.534 271.608C217.379 271.673 217.197 271.538 216.949 271.235C217.091 271.181 217.299 271.295 217.534 271.608Z" fill="#58B0A8"/>
<path d="M218.176 272.308C218.029 272.369 217.847 272.238 217.597 271.94C217.733 271.888 217.936 272.002 218.176 272.308Z" fill="#58B0A8"/>
<path d="M218.765 273.282C218.559 273.303 218.415 273.085 218.232 272.671C218.405 272.663 218.616 272.853 218.765 273.282Z" fill="#58B0A8"/>
<path d="M66.4816 70.5277C66.4906 70.7316 66.2748 70.8945 65.8775 71.1403C65.883 70.9778 66.0699 70.7322 66.4816 70.5277Z" fill="#70B78F"/>
<path d="M218.368 257.79C218.349 257.63 218.528 257.424 218.892 257.142C218.907 257.293 218.737 257.519 218.368 257.79Z" fill="#58B0A8"/>
<path d="M217.727 258.521C217.664 258.351 217.779 258.15 218.05 257.883C218.105 258.041 218.006 258.265 217.727 258.521Z" fill="#58B0A8"/>
<path d="M217.068 259.227C217.009 259.055 217.129 258.857 217.407 258.596C217.458 258.757 217.353 258.979 217.068 259.227Z" fill="#58B0A8"/>
<path d="M52.3263 160.052C52.5036 160.031 52.6458 160.242 52.8701 160.628C52.7318 160.629 52.5114 160.456 52.3263 160.052Z" fill="#70B78F"/>
<path d="M51.6843 158.883C51.799 158.838 51.9618 158.984 52.2014 159.295C52.1178 159.302 51.9358 159.173 51.6843 158.883Z" fill="#70B78F"/>
<path d="M317.974 145.608C317.86 145.643 317.773 145.54 317.644 145.34C317.775 145.223 317.908 145.298 317.974 145.608Z" fill="#70B78F"/>
<path d="M283.689 143.778C283.748 143.888 283.658 144.034 283.468 144.265C283.302 144.13 283.358 143.951 283.689 143.778Z" fill="#70B78F"/>
<path d="M280.076 198.405C279.921 198.429 279.729 198.234 279.474 197.831C279.62 197.811 279.829 197.999 280.076 198.405Z" fill="#58B0A8"/>
<path d="M280.681 199.439C280.484 199.46 280.326 199.239 280.138 198.81C280.311 198.799 280.515 198.998 280.681 199.439Z" fill="#58B0A8"/>
<path d="M236.452 216.934C236.329 216.741 236.424 216.473 236.668 216.057C236.767 216.226 236.719 216.543 236.452 216.934Z" fill="#58B0A8"/>
<path d="M151.517 217.137C151.63 217.094 151.862 217.231 152.208 217.547C152.094 217.589 151.866 217.454 151.517 217.137Z" fill="#58B0A8"/>
<path d="M235.713 217.836C235.677 217.716 235.806 217.47 236.093 217.097C236.127 217.217 236.003 217.463 235.713 217.836Z" fill="#58B0A8"/>
<path d="M152.31 217.894C152.463 217.834 152.645 217.969 152.89 218.276C152.748 218.328 152.544 218.209 152.31 217.894Z" fill="#58B0A8"/>
<path d="M234.461 219.079C234.448 218.922 234.637 218.725 235.006 218.442C235.013 218.583 234.838 218.811 234.461 219.079Z" fill="#58B0A8"/>
<path d="M250.353 104.158C250.171 104.24 250.032 104.099 249.815 103.823C249.944 103.785 250.163 103.867 250.353 104.158Z" fill="#70B78F"/>
<path d="M123.128 91.5656C123.962 92.556 124.499 93.8873 125.296 94.1101C132.116 96.0156 133.808 102.343 135.983 108.484C139.812 108.614 143.412 108.933 146.788 105.352C150.131 101.806 154.793 103.341 156.906 108.059C158.768 112.217 162.213 112.975 165.743 114.316C169.927 115.906 172.621 114.187 175.543 111.396C177.187 109.826 179.373 109.244 181.664 110.637C182.916 111.399 184.415 111.677 185.752 112.156C189.311 107.581 192.787 103.114 196.621 98.4971C197.115 97.9465 197.25 97.5465 197.385 97.1465C197.385 97.1465 197.468 97.1971 197.571 97.1C197.812 96.7841 197.949 96.5653 198.087 96.3466C198.104 96.1375 198.197 95.9831 198.636 95.6712C198.837 94.4292 198.769 93.3993 198.701 92.3694C198.701 92.3694 198.762 92.4355 198.734 92.4706C198.724 91.303 198.743 90.1002 198.998 88.6255C199.737 89.2685 200.305 90.1495 200.733 91.1048C201.818 93.5252 202.408 96.079 205.832 96.2053C207.599 96.2705 209.308 98.2693 211.043 99.3945C209.856 99.3523 208.669 99.31 207.297 99.3938C206.748 99.4256 206.384 99.3315 205.799 98.9218C205.021 98.6367 204.465 98.6671 203.909 98.6975C199.634 103.791 195.263 108.796 191.177 114.065C190.49 114.951 190.664 117.114 191.079 118.451C192.932 124.416 191.76 129.396 187.372 133.403C186.383 134.306 185.096 134.997 183.843 135.35C177.188 137.226 169.781 134.206 169.035 126.222C168.417 119.612 163.92 118.884 160.062 117.207C158.004 116.313 155.354 117.175 153.004 116.908C150.878 116.666 148.218 116.681 146.808 115.326C143.319 111.972 139.815 113.893 136.287 114.342C135.975 114.382 135.748 115.605 135.552 116.302C131.741 129.857 121.027 133.911 109.859 129.685C103.916 127.437 99.966 120.337 100.136 113.472C100.24 109.239 99.7017 105.016 101.878 100.954C104.534 95.9974 108.178 93.2195 113.311 92.3891C114.916 92.1293 116.447 91.3188 118.135 90.5244C119.009 89.1649 119.939 88.1314 120.463 86.8932C121.017 85.5808 121.185 84.074 121.521 82.6521C121.829 82.6702 122.138 82.6882 122.446 82.7063C122.446 84.1766 122.38 85.6515 122.465 87.1161C122.547 88.5471 122.783 89.9674 123.128 91.5656ZM102.595 110.962C101.537 114.721 102.591 117.864 104.473 121.113C109.347 129.526 119.657 131.706 126.934 125.754C131.202 122.263 131.781 116.624 134.061 111.981C134.349 111.394 134.13 110.297 133.823 109.608C130.628 102.436 126.325 96.5768 118.57 95.1697C116.918 94.8699 114.856 94.3162 113.569 95.0706C107.952 98.3637 102.656 102.185 102.595 110.962ZM188.826 119.172C187.284 113.962 187.284 113.972 182.119 113.784C181.263 113.753 180.413 113.55 179.556 113.5C175.414 113.257 171.089 116.779 170.513 120.841C169.89 125.235 173.183 132.111 176.684 132.868C180.357 133.663 184.193 134.173 187.062 130.336C189.448 127.145 190.604 123.749 188.826 119.172Z" fill="#58B0A8"/>
<path d="M167.663 32.1195C166.692 32.2779 165.668 32.0832 165.252 32.5433C160.572 37.7263 155.426 35.0069 150.887 32.9636C142.563 29.2166 139.956 19.5047 144.648 11.0591C146.281 8.12021 148.642 5.65712 150.726 3.02824C151.127 2.52171 151.763 1.97006 152.325 1.92236C158.174 1.42584 164.118 0.22093 168.848 5.82834C173.617 11.4811 175.116 18.5911 172.328 25.1898C171.257 27.7259 171.851 31.7022 167.663 32.1195Z" fill="#51C186"/>
<path d="M231.824 26.1347C241.116 23.7918 249.501 30.9186 249.759 41.0456C249.792 42.3306 249.807 43.6393 250.041 44.8902C250.594 47.8507 250.466 49.8099 247.007 50.7482C244.825 51.34 243.188 54.0333 241.082 55.3585C239.898 56.1032 238.193 56.4036 236.836 56.1579C234.531 55.7402 232.289 54.8134 230.067 53.956C226.367 52.5281 224.875 49.4348 223.199 45.5586C221.174 40.8752 224.31 36.5302 222.399 32.2916C222.271 32.0095 222.73 31.1233 223.105 30.9077C225.903 29.2973 228.748 27.7852 231.824 26.1347Z" fill="#51C186"/>
<path d="M211.295 99.3917C209.308 98.2693 207.599 96.2705 205.832 96.2053C202.408 96.079 201.818 93.5252 200.733 91.1048C200.305 90.1495 199.737 89.2685 199.003 88.3259C197.574 83.5889 197.657 79.075 200.467 74.9703C200.658 74.6913 200.959 74.3695 200.949 74.0788C200.761 68.8924 204.317 69.5978 207.234 69.2807C211.007 68.8707 214.717 67.8781 218.436 70.116C223.989 73.4583 226.479 81.1675 224.897 87.8134C223.023 95.6848 217.229 97.2435 211.295 99.3917Z" fill="#39BA9F"/>
<path d="M156.775 83.2653C156.454 81.6163 156.138 80.2605 155.857 78.896C155.329 76.3286 155.729 74.247 158.319 73.2786C158.81 73.0947 159.361 72.8165 159.677 72.3959C163.502 67.3015 168.675 68.8655 173.309 69.7076C174.913 69.9992 176.322 73.2088 177.345 75.3552C180.155 81.2498 177.936 88.5636 172.538 91.9664C167.998 94.8284 161.475 93.1185 158.334 88.0537C157.535 86.7653 157.293 85.0655 156.775 83.2653Z" fill="#39BA9F"/>
<path d="M271.481 75.8695C270.689 75.2253 270.154 74.6352 269.532 74.1906C264.625 70.6857 264.62 70.6942 266.351 64.5661C266.54 63.8978 266.867 63.2383 266.898 62.5621C266.968 61.0393 266.386 58.4924 266.961 58.1517C269.931 56.3902 273.148 54.1302 276.344 54.0025C284.989 53.657 289.994 61.5885 287.531 70.712C287.108 72.2757 286.79 73.8988 286.161 75.3599C285.814 76.1673 284.956 77.2079 284.267 77.2655C280.029 77.6199 275.709 78.4342 271.481 75.8695Z" fill="#51C186"/>
<path d="M117.789 11.8808C122.277 17.2091 121.984 22.3331 117.471 27.4239C116.06 29.0159 115.373 31.3726 114.36 33.3704C109.136 32.0674 104.017 30.5599 99.4356 27.4604C99.0321 27.1874 98.4703 26.5573 98.5295 26.2016C99.3057 21.5407 99.3121 16.4111 101.224 12.3619C104.478 5.47191 113.655 6.16288 117.789 11.8808Z" fill="#51C186"/>
<path d="M124.915 74.2613C120.328 72.9009 116.748 70.2846 115.436 65.328C114.296 61.0231 114.27 56.7073 118.132 53.5939C118.625 53.1959 119.217 52.5745 119.292 51.9853C119.841 47.6683 122.145 48.1983 124.806 49.4503C125.39 49.7249 126.055 49.9936 126.669 49.96C133.26 49.5985 134.735 54.7319 135.941 60.1595C136.487 62.6199 136.995 65.0907 137.588 67.8796C133.595 69.8992 129.364 72.0387 124.915 74.2613Z" fill="#51C186"/>
<path d="M62.1911 47.0679C60.2239 39.3508 63.9242 33.0681 70.8027 32.0009C75.3996 31.2878 80.6264 37.4631 80.4051 42.4711C80.1297 48.7026 75.924 51.1345 72.1541 54.1073C71.6006 54.5436 70.2945 54.6713 69.8233 54.2668C67.2427 52.0516 64.8138 49.6258 62.1911 47.0679Z" fill="#51C186"/>
<path d="M192.528 21.1324C191.067 14.2753 195.053 10.0273 199.517 8.80609C205.133 7.26981 210.253 11.7112 210.991 18.039C211.702 24.1314 210.553 26.0073 205.044 27.5581C202.871 28.1696 200.682 28.7519 198.469 29.1261C197.786 29.2416 196.665 28.8687 196.318 28.3016C194.961 26.0841 193.833 23.6994 192.528 21.1324Z" fill="#51C186"/>
<path d="M239.858 102.124C245.613 100.909 248.075 105.265 250.597 109.316C252.445 112.284 251.831 115.365 250.258 118.25C248.152 122.109 245.085 123.426 240.983 122.731C236.859 122.032 234.368 119.436 233.274 115.366C232.267 111.622 233.175 108.183 236.037 105.567C237.092 104.602 238.143 103.632 239.259 102.445C239.442 102.204 239.561 102.182 239.858 102.124Z" fill="#39BA9F"/>
<path d="M182.8 56.1159C182.708 54.5284 182.653 53.2435 182.653 51.9586C182.655 46.8498 183.719 45.8055 188.368 46.4565C188.927 46.5347 189.759 46.9245 189.911 47.3867C191.017 50.7421 191.979 54.1532 192.987 57.5466C192.774 57.9008 192.562 58.255 192.349 58.6091C189.186 57.8789 186.024 57.1487 182.8 56.1159Z" fill="#51C186"/>
<path d="M243.951 74.1165C246.979 74.8285 249.831 75.7148 252.738 76.6181C251.967 81.1662 249.319 83.4796 246.364 85.3962C245.967 85.6543 244.588 84.8854 244.178 84.2165C242.235 81.0511 241.132 77.7277 243.951 74.1165Z" fill="#51C186"/>
<path d="M124.952 77.552C125.135 78.2372 125.12 78.8784 124.907 79.6364C124.113 79.2347 123.516 78.7163 122.919 78.1979C123.531 77.9679 124.142 77.7379 124.952 77.552Z" fill="#58B0A8"/>
<path d="M16.5935 118.061C14.2984 116.515 12.3206 114.85 10.1378 113.616C-0.904974 107.373 -0.251747 89.3352 10.742 81.3887C10.8314 81.324 10.928 81.2097 11.0171 81.2144C15.7557 81.4647 20.3883 78.1871 25.3058 81.2805C27.603 82.7254 30.4126 83.2723 32.1822 85.6838C34.1031 88.3014 35.9121 91.0174 37.7388 93.7155C37.9049 93.9609 37.993 94.4811 37.8684 94.7177C34.904 100.349 36.2855 108.208 30.3296 112.292C28.7187 113.397 27.1589 114.706 25.404 115.418C22.6173 116.548 19.6863 117.254 16.5935 118.061Z" fill="#39BA9F"/>
<path d="M58.8589 82.7726C60.5875 79.8555 62.4513 77.1676 64.4326 74.2836C65.4714 73.8012 66.4593 73.6616 67.3033 73.205C72.9237 70.1652 81.8779 73.3206 84.4977 79.6934C86.9698 85.707 87.9464 91.8271 83.1186 97.3221C82.0424 98.5471 81.4703 100.482 80.2291 101.317C76.5563 103.786 72.6279 102.12 68.8067 101.489C68.0889 101.37 67.2637 100.412 66.76 100.622C62.9132 102.22 63.1373 98.6203 61.7477 96.547C58.9295 92.3419 58.8933 87.7553 58.8589 82.7726Z" fill="#39BA9F"/>
<path d="M87.2241 196.22C82.2318 193.835 79.4269 189.273 77.59 184.541C76.6823 182.202 77.965 178.311 79.1884 175.628C83.0605 167.136 94.7946 164.264 101.296 170.013C106.789 174.869 107.531 184.788 103.283 190.811C99.0106 196.868 93.5447 197.25 87.2241 196.22Z" fill="#27B6B7"/>
<path d="M158.363 149.975C160.778 156.211 153.327 165.319 147.914 164.97C146.096 164.852 144.25 165.106 142.447 164.892C141.345 164.761 139.802 164.404 139.313 163.56C136.997 159.556 134.97 155.352 132.861 151.208C132.714 150.92 132.671 150.525 132.69 150.187C132.913 146.165 139.054 138.588 142.942 137.512C148.408 135.999 153.563 137.953 156.369 143.066C157.431 145 157.68 147.466 158.363 149.975Z" fill="#27B6B7"/>
<path d="M13.9883 163.072C15.9658 160.691 18.0724 160.202 20.5377 161.473C20.9174 161.668 21.3786 161.825 21.7854 161.787C28.533 161.156 29.7028 167.165 31.3055 171.945C32.644 175.938 32.4264 180.278 29.1845 183.677C25.1988 187.857 20.5663 190.617 15.2391 187.853C11.4609 185.892 7.89984 182.735 7.20256 177.59C6.3386 171.215 8.73295 166.446 13.9883 163.072Z" fill="#27B6B7"/>
<path d="M22.5471 131.373C27.9193 140.728 22.3725 147.994 16.4326 151.265C14.5229 152.316 10.4459 150.121 8.03094 148.333C3.46425 144.951 2.08862 139.35 3.76297 134.463C5.17017 130.355 10.9847 125.861 15.3893 126.626C17.8801 127.059 20.0641 129.593 22.5471 131.373Z" fill="#27B6B7"/>
<path d="M54.9952 176.237C60.0298 177.235 64.2492 182.87 64.0966 188.018C63.9637 192.501 59.1877 198.01 54.5479 197.692C52.0203 197.518 49.0013 195.505 47.3007 193.31C42.3399 186.906 45.5369 178.35 53.1671 176.639C53.6933 176.52 54.2184 176.396 54.9952 176.237Z" fill="#13B0CB"/>
<path d="M43.8624 137.249C40.2041 136.174 39.0624 133.159 38.3672 129.781C37.7772 126.913 38.9449 125.105 41.2513 123.862C42.6469 123.11 43.8768 121.58 45.2947 121.386C47.4327 121.093 50.1033 120.261 51.046 123.981C52.683 130.441 51.8823 133.761 47.7614 135.877C46.6073 136.469 45.3275 136.771 43.8624 137.249Z" fill="#39BA9F"/>
<path d="M54.2317 151.573C56.0837 150.773 57.7897 150.21 59.4976 149.653C59.5964 149.621 59.7694 149.596 59.8087 149.651C60.3385 150.396 61.1722 151.093 61.3097 151.924C61.8197 155.007 59.7655 159.303 57.3793 160.051C56.7015 160.263 55.155 159.634 55.0441 159.123C54.5261 156.738 54.371 154.258 54.2317 151.573Z" fill="#39BA9F"/>
<path d="M26.0171 131.978C26.405 135.149 26.7712 138.629 26.8998 142.267C26.44 139.045 26.2177 135.666 26.0171 131.978Z" fill="#70B78F"/>
<path d="M24.7718 129.807C25.1815 130.129 25.6036 130.689 26.0559 131.485C25.6521 131.162 25.2182 130.603 24.7718 129.807Z" fill="#70B78F"/>
<path d="M22.2914 127.567C22.5351 127.529 22.9219 127.62 23.3936 127.914C23.1306 127.976 22.7826 127.836 22.2914 127.567Z" fill="#70B78F"/>
<path d="M24.1302 129.035C24.2215 129.033 24.4379 129.15 24.6771 129.475C24.5518 129.506 24.4036 129.33 24.1302 129.035Z" fill="#70B78F"/>
<path d="M23.4949 128.303C23.5811 128.313 23.795 128.438 24.0322 128.769C23.9113 128.789 23.7669 128.604 23.4949 128.303Z" fill="#70B78F"/>
<path d="M197.026 147.846C199.774 148.07 203.122 152.289 203.208 155.297C203.291 158.205 200.593 162.726 198.18 163.721C195.918 164.654 191.317 163.301 189.69 161.065C188.238 159.071 186.569 157.101 187.782 154.148C189.073 151.005 190.78 148.456 194.213 148.05C195.063 147.95 195.922 147.932 197.026 147.846Z" fill="#27B6B7"/>
<path d="M232.49 106.359C232.816 105.25 233.361 104.069 234.151 102.924C233.834 104.069 233.271 105.178 232.49 106.359Z" fill="#70B78F"/>
<path d="M231.685 108.574C231.745 108.65 231.804 108.725 231.864 108.8C231.813 108.781 231.762 108.763 231.697 108.66C231.684 108.576 231.685 108.574 231.685 108.574Z" fill="#70B78F"/>
<path d="M231.27 108.581C231.199 108.363 231.266 108.144 231.492 107.854C231.66 107.915 231.668 108.046 231.681 108.376C231.685 108.574 231.683 108.577 231.683 108.577C231.683 108.577 231.407 108.58 231.27 108.581Z" fill="#70B78F"/>
<path d="M231.885 107.049C231.857 106.956 231.924 106.74 232.151 106.461C232.213 106.582 232.102 106.759 231.885 107.049Z" fill="#70B78F"/>
<path d="M234.048 197.166C234.274 197.21 234.34 197.513 234.353 197.956C235.016 200.436 234.119 203.258 236.855 204.236C236.889 204.542 236.924 204.848 236.987 205.383C236.745 206.601 236.352 207.57 236.227 208.58C235.365 215.593 231.74 220.013 225.95 223.059C220.684 225.828 216.404 225.255 211.867 221.264C209.179 218.9 205.969 217.386 205.982 212.911C205.992 209.341 205.952 205.771 206.016 202.203C206.043 200.706 206.283 199.213 206.373 197.404C206.321 197.091 206.361 196.761 206.595 196.528C207.137 195.66 207.445 195.023 207.753 194.387C208.21 194.343 208.667 194.298 209.576 194.236C210.549 193.551 211.069 192.884 211.59 192.217C212.091 191.988 212.592 191.758 213.294 191.488C215.997 190.951 218.487 190.224 221.009 190.053C222.401 189.959 223.992 190.513 225.239 191.272C228.181 193.064 230.971 195.153 234.048 197.166Z" fill="#13B0CB"/>
<path d="M185.116 239.623C181.089 235.266 181.053 231.246 184.003 226.03C185.873 222.725 187.807 219.747 191.577 220.065C195.012 220.355 198.39 221.509 201.778 222.358C202.081 222.434 202.346 223.032 202.498 223.444C205.233 230.907 202.61 239.436 196.061 243.417C193.045 245.251 190.375 242.651 187.652 241.615C186.78 241.283 186.08 240.41 185.116 239.623Z" fill="#13B0CB"/>
<path d="M193.08 258.787C194.373 257.243 195.515 255.014 196.847 254.869C199.375 254.593 201.101 256.799 201.928 259.381C202.623 261.548 203.019 263.829 203.653 266.507C200.369 267.065 197.448 267.597 194.623 265.511C192.338 263.825 192.286 261.573 193.08 258.787Z" fill="#13B0CB"/>
<path d="M209.096 251.316C209.394 247.611 211.806 244.713 214.85 244.208C215.321 244.129 216.196 244.271 216.285 244.543C217.151 247.193 218.711 250.012 218.404 252.541C218.161 254.543 215.63 256.264 213.965 257.932C213.801 258.096 212.385 257.174 211.899 256.47C210.848 254.945 210.024 253.234 209.096 251.316Z" fill="#13B0CB"/>
<path d="M212.469 269.654C214.442 270.346 217.564 275.209 217.407 277.343C217.238 279.63 214.819 281.179 213.603 279.516C211.638 276.829 210.41 273.499 209.263 270.38C210.592 270.098 211.531 269.876 212.469 269.654Z" fill="#13B0CB"/>
<path d="M213.71 241.366C213.972 236.657 214.39 231.733 214.798 226.495C215.219 227.559 216.148 229.015 215.983 230.304C215.517 233.956 214.603 237.54 213.71 241.366Z" fill="#58B0A8"/>
<path d="M212.501 269.377C211.531 269.876 210.592 270.098 209.413 270.281C209.154 269.735 209.137 269.228 209.158 268.468C210.874 268.807 211.739 268.49 211.654 266.218C211.591 264.557 212.056 262.872 212.276 260.897C212.356 263.431 212.445 266.266 212.501 269.377Z" fill="#58B0A8"/>
<path d="M203.971 258.72C204.481 260.349 204.902 262.27 205.322 264.483C204.841 262.854 204.362 260.934 203.971 258.72Z" fill="#58B0A8"/>
<path d="M211.586 259.024C211.214 258.884 210.783 258.514 210.237 257.947C210.59 258.099 211.058 258.446 211.586 259.024Z" fill="#58B0A8"/>
<path d="M212.417 242.878C212.533 242.473 212.856 242.022 213.372 241.508C213.252 241.907 212.938 242.369 212.417 242.878Z" fill="#58B0A8"/>
<path d="M203.294 257.002C203.531 257.142 203.782 257.525 204.028 258.165C203.785 258.03 203.546 257.638 203.294 257.002Z" fill="#58B0A8"/>
<path d="M214.096 225.304C213.809 225.363 213.371 225.245 212.811 224.903C213.108 224.829 213.526 224.977 214.096 225.304Z" fill="#58B0A8"/>
<path d="M200.697 254.463C200.994 254.339 201.461 254.356 202.006 254.621C201.678 254.78 201.273 254.692 200.697 254.463Z" fill="#58B0A8"/>
<path d="M211.129 243.602C211.248 243.386 211.565 243.148 212.101 242.907C211.989 243.129 211.658 243.354 211.129 243.602Z" fill="#58B0A8"/>
<path d="M212.26 260.472C212.037 260.352 211.819 260.012 211.606 259.436C211.828 259.55 212.046 259.902 212.26 260.472Z" fill="#58B0A8"/>
<path d="M202.121 255.042C202.262 254.985 202.461 255.097 202.691 255.398C202.542 255.461 202.361 255.335 202.121 255.042Z" fill="#58B0A8"/>
<path d="M202.746 255.819C202.956 255.801 203.162 256.003 203.314 256.454C203.088 256.482 202.915 256.261 202.746 255.819Z" fill="#58B0A8"/>
<path d="M208.366 267.828C208.505 267.732 208.78 267.776 209.114 268.05C208.949 268.176 208.725 268.071 208.366 267.828Z" fill="#58B0A8"/>
<path d="M205.985 265.629C206.143 265.621 206.35 265.806 206.513 266.225C206.324 266.247 206.178 266.035 205.985 265.629Z" fill="#58B0A8"/>
<path d="M205.344 264.894C205.483 264.841 205.692 264.954 205.931 265.266C205.778 265.33 205.597 265.195 205.344 264.894Z" fill="#58B0A8"/>
<path d="M210.453 244.297C210.422 244.163 210.541 243.938 210.839 243.667C210.88 243.815 210.741 244.01 210.453 244.297Z" fill="#58B0A8"/>
<path d="M212.474 224.466C212.312 224.602 211.986 224.542 211.523 224.235C211.694 224.083 212.002 224.177 212.474 224.466Z" fill="#58B0A8"/>
<path d="M214.797 226.022C214.648 226.077 214.439 225.959 214.213 225.639C214.375 225.575 214.556 225.712 214.797 226.022Z" fill="#58B0A8"/>
<path d="M303.684 115.846C300.479 116.438 297.998 114.832 295.275 114.055C289.249 112.335 290.034 107.75 290.441 103.424C290.783 99.7945 292.04 96.2554 293.033 92.7237C293.213 92.0821 293.997 91.4319 294.632 91.1869C298.879 89.5489 305.981 92.4248 309.377 95.5681C315.366 101.11 310.347 114.377 303.684 115.846Z" fill="#39BA9F"/>
<path d="M258.567 179.652C252.596 183.36 246.593 180.114 244.051 175.676C240.796 169.992 242.394 163.725 247.732 160.363C251.349 158.085 255.048 157.428 258.639 160.153C262.258 162.899 264.597 169.396 263.104 173.537C262.292 175.789 260.241 177.508 258.567 179.652Z" fill="#27B6B7"/>
<path d="M275.806 131.734C274.021 135.951 270.525 137.005 267.159 138.151C266.675 138.315 265.538 137.559 265.293 136.948C264.499 134.97 263.862 132.893 263.381 130.796C262.421 126.608 264.791 123.428 268.818 123.325C269.139 123.317 269.461 123.319 269.783 123.331C275.963 123.569 276.823 124.714 275.806 131.734Z" fill="#39BA9F"/>
<path d="M158.125 184.563C161.44 184.944 164.755 185.325 168.344 185.962C169.01 186.302 169.403 186.386 169.795 186.47C170.797 187.087 171.798 187.703 172.938 188.497C173.274 189.208 173.356 189.854 173.686 190.258C179.707 197.617 180.288 203.649 175.741 212.04C171.535 219.803 159.766 221.7 153.838 215.356C151.352 212.694 149.21 209.591 147.248 206.439C146.595 205.392 146.579 203.407 146.99 202.124C148.24 198.212 149.846 194.435 151.295 190.597C151.455 190.173 151.494 189.695 151.579 188.983C151.568 188.724 151.621 188.691 151.887 188.691C154.143 187.315 156.134 185.939 158.125 184.563Z" fill="#13B0CB"/>
<path d="M122.835 218.794C116.592 219.083 112.978 216.354 111.312 210.348C109.927 205.362 113.846 198.922 118.799 198.042C123.697 197.171 128.581 200.704 130.616 206.589C131.477 209.078 128.961 214.633 125.852 216.986C124.98 217.646 124.008 218.148 122.835 218.794Z" fill="#13B0CB"/>
<path d="M145.61 197.144C146.089 195.144 146.76 193.029 147.649 190.774C147.179 192.766 146.491 194.898 145.61 197.144Z" fill="#58B0A8"/>
<path d="M148.575 189.402C148.535 189.261 148.646 189.044 148.93 188.786C148.977 188.939 148.851 189.133 148.575 189.402Z" fill="#58B0A8"/>
<path d="M148.031 190.386C147.927 190.218 147.963 189.902 148.221 189.519C148.352 189.714 148.261 189.976 148.031 190.386Z" fill="#58B0A8"/>
<path d="M315.443 165.978C311.352 170.983 306.654 174.259 300.546 173.912C297.16 173.719 293.805 172.872 290.444 172.266C290.075 172.199 289.465 171.77 289.466 171.512C289.488 167.438 285.955 165.696 284.59 162.54C282.414 157.508 284.766 146.458 288.738 143.273C289.25 142.862 289.781 142.387 290.11 141.81C292.707 137.257 297.084 136.404 301.143 136.94C306.556 137.654 311.302 139.928 314.414 145.954C317.881 152.666 317.52 159.008 315.443 165.978Z" fill="#27B6B7"/>
<path d="M157.884 184.571C156.134 185.939 154.143 187.315 151.917 188.69C152.642 185.545 155.354 185.426 157.884 184.571Z" fill="#27B6B7"/>
<path d="M211.395 192.286C211.069 192.884 210.549 193.551 209.805 194.234C210.122 193.619 210.661 192.987 211.395 192.286Z" fill="#27B6B7"/>
<path d="M207.581 194.5C207.445 195.023 207.137 195.66 206.629 196.366C206.755 195.828 207.083 195.22 207.581 194.5Z" fill="#27B6B7"/>
<path d="M169.655 186.363C169.403 186.386 169.01 186.302 168.586 186.046C168.875 186.001 169.195 186.129 169.655 186.363Z" fill="#27B6B7"/>
<path d="M254.172 212.689C252.905 205.677 255.944 198.35 261.319 195.066C261.599 194.895 261.897 194.748 262.202 194.644C267.261 192.919 276.127 196.7 278.968 201.787C282.119 207.43 281.062 214.648 276.687 219.811C272.582 224.653 267.539 224.577 262.459 223.153C257.858 221.864 255.125 218.149 254.172 212.689Z" fill="#13B0CB"/>
<path d="M45.3356 62.6398C45.5706 66.6671 43.5185 68.4191 38.735 68.4481C35.5514 68.4674 33.5584 66.3868 32.3153 63.5016C30.9024 60.2218 31.8645 57.2682 34.1905 54.9578C36.2928 52.8698 39.3029 52.1793 41.2235 54.1986C43.1781 56.2536 44.0038 59.5868 45.3356 62.6398Z" fill="#51C186"/>
<path d="M214.274 188.886C216.466 187.85 218.956 186.87 221.701 185.888C220.408 189.533 217.257 188.567 214.274 188.886Z" fill="#58B0A8"/>
<path d="M236.871 203.951C234.119 203.258 235.016 200.436 234.374 198.11C234.793 197.893 235.206 197.966 235.822 198.089C236.312 199.981 236.6 201.823 236.871 203.951Z" fill="#27B6B7"/>
<path d="M204.149 98.7392C204.465 98.6671 205.021 98.6366 205.71 98.7395C205.359 98.8421 204.874 98.8115 204.149 98.7392Z" fill="#70B78F"/>
<path d="M198.707 92.6599C198.769 93.3993 198.837 94.4291 198.763 95.6333C198.651 94.8552 198.683 93.9028 198.707 92.6599Z" fill="#70B78F"/>
<path d="M197.19 97.2455C197.25 97.5465 197.115 97.9465 196.856 98.5102C196.82 98.2308 196.907 97.7876 197.19 97.2455Z" fill="#70B78F"/>
<path d="M197.915 96.4504C197.949 96.5653 197.812 96.7841 197.548 97.1456C197.529 97.0436 197.636 96.7989 197.915 96.4504Z" fill="#70B78F"/>
<path d="M102.604 110.651C102.656 102.185 107.952 98.3637 113.569 95.0706C114.856 94.3162 116.918 94.8699 118.57 95.1697C126.325 96.5768 130.628 102.436 133.823 109.608C134.13 110.297 134.349 111.394 134.061 111.981C131.781 116.624 131.202 122.263 126.934 125.754C119.657 131.706 109.347 129.526 104.473 121.113C102.591 117.864 101.537 114.721 102.604 110.651Z" fill="#39BA9F"/>
<path d="M188.91 119.447C190.604 123.749 189.448 127.145 187.062 130.336C184.193 134.173 180.357 133.663 176.684 132.868C173.183 132.111 169.89 125.235 170.513 120.841C171.089 116.779 175.414 113.257 179.556 113.5C180.413 113.55 181.263 113.753 182.119 113.784C187.284 113.972 187.284 113.962 188.91 119.447Z" fill="#39BA9F"/>
</svg>
